<svg xmlns="http://www.w3.org/2000/svg" xmlns:xlink="http://www.w3.org/1999/xlink" xmlns:lucid="lucid" width="1646.1" height="540.9"><g transform="translate(320.5 -127.6015625)" lucid:page-tab-id="0_0"><path d="M-500 0h2000v1000H-500z" fill="#fff"/><path d="M-320 228a8 8 0 0 1 8-8h1629.1a8 8 0 0 1 8 8v432a8 8 0 0 1-8 8H-312a8 8 0 0 1-8-8z" stroke="#3a414a" fill="#fff"/><path d="M-320 135.6a8 8 0 0 1 8-8h617.48a8 8 0 0 1 8 8V200a8 8 0 0 1-8 8H-312a8 8 0 0 1-8-8z" fill="#3a414a"/><use xlink:href="#a" transform="matrix(1,0,0,1,-304,143.6015625) translate(0 39.05078125)"/><use xlink:href="#b" transform="matrix(1,0,0,1,-304,143.6015625) translate(95.859375 39.05078125)"/><use xlink:href="#c" transform="matrix(1,0,0,1,-304,143.6015625) translate(209.35546875 39.05078125)"/><use xlink:href="#d" transform="matrix(1,0,0,1,-304,143.6015625) translate(369.98046875 39.05078125)"/><path d="M8 302a2 2 0 0 1 2-2h1233.1a2 2 0 0 1 2 2v284a2 2 0 0 1-2 2H10a2 2 0 0 1-2-2z" fill="#f6f6f6"/><path d="M8 300h1237.1v288H8z" fill-opacity="0"/><path d="M101.43 332.93c-2 0-3.93-.75-5.33-2.17-1.4-1.44-2.2-3.4-2.14-5.47-.07-2.06.74-4.03 2.14-5.47 1.4-1.44 3.33-2.25 5.33-2.2 2-.05 4 .83 5.27 2.4l-1.27 1.3c-.94-1.23-2.47-1.92-4-1.84-1.46 0-2.93.52-4 1.63-1.07 1.08-1.66 2.66-1.6 4.22-.06 1.58.53 3.14 1.6 4.25 1.07 1.08 2.47 1.63 4 1.63 1.73 0 3.33-.75 4.46-2.1l1.26 1.28c-.66.83-1.53 1.5-2.47 1.92-1.08.4-2.13.7-3.27.6zM108.72 332.68h1.87V317.9h-1.88v14.78zM113.6 323.72c2-2.05 5.27-2.05 7.28 0 .93 1.03 1.46 2.4 1.4 3.83.06 1.44-.47 2.8-1.4 3.83-2 2.05-5.27 2.05-7.27 0-.93-1.03-1.46-2.4-1.4-3.83-.06-1.36.4-2.74 1.4-3.83 0 .07 0 .07 0 0zm1.34 6.57c1.2 1.3 3.27 1.3 4.54 0 .66-.7 1-1.72.92-2.7.08-.94-.33-1.9-.92-2.65-1.2-1.3-3.27-1.3-4.54 0-.66.7-1 1.7-.94 2.66-.06.98.34 1.94.94 2.7zM132.53 332.66h-1.8v-1.37h-.07c-.33.54-.73.94-1.33 1.22-.54.34-1.2.48-1.87.48-1.06.07-2.07-.34-2.8-1.16-.67-.9-1-1.98-.93-3.08v-6.2h1.87v5.87c0 1.9.8 2.8 2.4 2.8.73 0 1.4-.35 1.86-.9.47-.6.74-1.36.74-2.17v-5.6h1.86l.07 10.1zM138.78 332.94c-1.27 0-2.47-.54-3.34-1.57-.92-1.02-1.4-2.38-1.4-3.82-.06-1.44.48-2.8 1.4-3.82.8-.96 2-1.58 3.34-1.58.66 0 1.4.14 2 .47.53.3 1 .7 1.33 1.24h.08l-.07-1.37v-4.65H144v14.76h-1.8v-1.36h-.07c-.32.54-.8.95-1.32 1.22-.6.35-1.34.56-2 .5zm.27-1.7c.86 0 1.66-.34 2.2-.95.6-.77.93-1.72.86-2.7.08-.94-.26-1.9-.86-2.65-1.2-1.36-3.27-1.36-4.46 0-.67.75-.93 1.7-.87 2.66-.05.98.28 1.93.88 2.7.6.6 1.46.94 2.27.94z" fill="#606469"/><path d="M39.95 323.72h-7.57v2.3h5.37c-.26 3.23-2.85 4.66-5.37 4.66-3.2 0-5.92-2.6-5.92-6.14 0-3.56 2.65-6.2 5.92-6.2 2.52 0 4.05 1.62 4.05 1.62l1.6-1.63s-2-2.33-5.72-2.33c-4.7 0-8.3 4.1-8.3 8.47 0 4.37 3.4 8.54 8.44 8.54 4.4 0 7.64-3.14 7.64-7.7 0-1.04-.13-1.58-.13-1.58z" fill="#4285f4"/><path d="M46.25 322.07c-3.13 0-5.33 2.53-5.33 5.4 0 2.87 2.13 5.54 5.4 5.54 2.92 0 5.33-2.25 5.33-5.46-.07-3.62-2.8-5.47-5.4-5.47zm.07 2.12c1.53 0 3 1.3 3 3.34 0 2.06-1.47 3.28-3 3.28-1.73 0-3.07-1.37-3.07-3.35s1.34-3.28 3.07-3.28z" fill="#ea4335"/><path d="M57.9 322.07c-3.14 0-5.34 2.53-5.34 5.4 0 2.87 2.13 5.54 5.4 5.54 2.92 0 5.33-2.25 5.33-5.46-.08-3.62-2.88-5.47-5.4-5.47zm0 2.12c1.53 0 2.98 1.3 2.98 3.34 0 2.06-1.45 3.28-3 3.28-1.73 0-3.06-1.37-3.06-3.35s1.33-3.28 3.07-3.28z" fill="#fbbc05"/><path d="M69.2 322.07c-2.86 0-5.12 2.6-5.12 5.47 0 3.28 2.6 5.47 5.07 5.47 1.53 0 2.32-.6 2.93-1.3v1.1c0 1.92-1.14 3.02-2.8 3.02-1.67 0-2.47-1.25-2.73-1.93l-2.07.88c.73 1.58 2.2 3.22 4.8 3.22 2.87 0 5-1.85 5-5.67v-10h-2.26v.97c-.6-.75-1.6-1.23-2.8-1.23zm.22 2.12c1.4 0 2.86 1.22 2.86 3.34 0 2.1-1.47 3.28-2.86 3.28-1.53 0-2.94-1.3-2.94-3.28 0-1.98 1.4-3.35 2.94-3.35z" fill="#4285f4"/><path d="M84.32 322c-2.66 0-5 2.2-5 5.47 0 3.42 2.53 5.47 5.2 5.47 2.26 0 3.67-1.23 4.46-2.4l-1.87-1.22c-.45.74-1.25 1.5-2.58 1.5-1.46 0-2.2-.82-2.6-1.64l7.13-3-.4-.9c-.6-1.76-2.2-3.27-4.33-3.27zm.13 2.13c1 0 1.67.54 2 1.16l-4.73 2.03c-.27-1.56 1.13-3.2 2.73-3.2z" fill="#ea4335"/><path d="M75.96 332.67h2.33v-16.12h-2.34v16.12z" fill="#34a853"/><path d="M-224 412.5c-5.87 0-12.26 5.85-12.26 11.76V476H-224v-24h11.74v24h11.7v-51.74c0-5.9-5.85-11.75-12.24-11.75H-224zm0 27.25V423.7h11.74v16.05H-224zM-179.75 412c-6.4 0-12.25 5.9-12.25 11.7V476h11.7v-24h11.76c5.86 0 12.25-5.9 12.25-11.7v-16c0-5.9-5.84-11.8-12.24-11.8h-11.2v-.5zm-.54 27.7v-16h11.76v16h-11.75zM-135.98 424.26v40h-12.24V476H-112v-11.75h-11.74v-40H-112v-11.74h-36.22v11.76h12.24z" fill="#5c85de"/><path d="M-224 452.04v-12.26h8l-8 12.26zM-180.22 452.04v-12.26h6.93l-6.92 12.26zM-135.94 432.3v-8h12.27l-12.27 8z" fill="#3367d6"/><path d="M-240 405.6v76.8h128v-76.8z" fill-opacity="0"/><use xlink:href="#e" transform="matrix(1,0,0,1,-270,517) translate(28.858506944444457 21.74305555555555)"/><use xlink:href="#f" transform="matrix(1,0,0,1,-270,517) translate(110.28537326388889 21.74305555555555)"/><path d="M88 393h128v44.68H88V393z" stroke="#000" stroke-opacity="0" fill="#aecbfa"/><path d="M203.2 393H216v44.68h-12.8V393z" stroke="#000" stroke-opacity="0" fill="#669df6"/><path d="M216 393h-12.8v44.68L216 393z" stroke="#000" stroke-opacity="0" fill="#4285f4"/><path d="M88 393h12.8v44.68H88V393z" stroke="#000" stroke-opacity="0" fill="#669df6"/><path d="M113.6 412.18H152v6.37h-38.4v-6.37zM180.8 405.75c6.4 0 9.6 3.2 9.6 9.6 0 6.37-3.2 9.58-9.6 9.58-6.4 0-9.6-3.2-9.6-9.6 0-6.38 3.2-9.58 9.6-9.58z" stroke="#000" stroke-opacity="0" fill="#fff"/><path d="M88 450.43h128v44.67H88v-44.67z" stroke="#000" stroke-opacity="0" fill="#aecbfa"/><path d="M203.2 450.43H216v44.67h-12.8v-44.67z" stroke="#000" stroke-opacity="0" fill="#669df6"/><path d="M216 450.43h-12.8v44.67l12.8-44.67z" stroke="#000" stroke-opacity="0" fill="#4285f4"/><path d="M88 450.43h12.8v44.67H88v-44.67z" stroke="#000" stroke-opacity="0" fill="#669df6"/><path d="M113.6 469.5H152v6.38h-38.4v-6.38zM180.8 463.18c6.4 0 9.6 3.2 9.6 9.58 0 6.4-3.2 9.6-9.6 9.6-6.4 0-9.6-3.2-9.6-9.6 0-6.38 3.2-9.58 9.6-9.58z" stroke="#000" stroke-opacity="0" fill="#fff"/><path d="M89.28 394.02v99.96h125.44v-99.96z" stroke="#000" stroke-opacity="0" fill-opacity="0"/><use xlink:href="#g" transform="matrix(1,0,0,1,58,504) translate(18.25000000000003 21.74305555555555)"/><use xlink:href="#h" transform="matrix(1,0,0,1,58,504) translate(86.86555989583334 21.74305555555555)"/><use xlink:href="#i" transform="matrix(1,0,0,1,58,504) translate(62.04296875000001 54.331336805555544)"/><path d="M446.2 436.45v16.8c2.8 4.77 6.2 8.26 10.95 11.1v-27.9z" stroke="#000" stroke-opacity="0" fill="#aecbfa"/><path d="M466.43 420.96v48.15c2.47.3 4.58.45 7.07.4 2.23.15 4.14.15 6.37 0v-48.54z" stroke="#000" stroke-opacity="0" fill="#669df6"/><path d="M490.5 443.1v21c4.77-3.05 8.17-6.66 10.88-11.6v-9.4z" stroke="#000" stroke-opacity="0" fill="#aecbfa"/><path d="M516.75 471.7l-9.05 9.05-.04.04c-1.04 1.07-1.04 2.77.04 3.8l22.6 22.62c1.04 1.04 2.75 1.04 3.8 0l9.12-9.13c1.04-1.05 1.04-2.76 0-3.8l-22.6-22.6-.04-.04c-1.08-1.04-2.8-1.04-3.83.04" stroke="#000" stroke-opacity="0" fill="#4285f4"/><path d="M473.6 380c-31.8 0-57.6 25.8-57.6 57.6s25.8 57.6 57.6 57.6 57.6-25.8 57.6-57.6-25.8-57.6-57.6-57.6m0 100.45c-23.62-.1-42.74-19.23-42.74-42.85.12-23.62 19.24-42.74 42.85-42.74 23.63.12 42.64 19.12 42.75 42.74 0 23.62-19.12 42.74-42.74 42.85h-.1" stroke="#000" stroke-opacity="0" fill="#669df6"/><use xlink:href="#j" transform="matrix(1,0,0,1,386,517) translate(44.59044053819446 21.74305555555555)"/><use xlink:href="#k" transform="matrix(1,0,0,1,386,517) translate(45.47265625000001 54.331336805555544)"/><path d="M778.04 405.3H744V380h93v25.2h-33.66v34.06h-25.3V405.3z" stroke="#000" stroke-opacity="0" fill="#aecbfa"/><path d="M744 414.43h25.13v33.87h34V508h-25.08v-34.25H744v-59.32zM812.06 414.3h25.04V508h-25.04v-93.7z" stroke="#000" stroke-opacity="0" fill="#4285f4"/><path d="M768.95 508H744v-25.22h24.95V508z" stroke="#000" stroke-opacity="0" fill="#aecbfa"/><path d="M744 380v128h93.1V380z" stroke="#000" stroke-opacity="0" fill-opacity="0"/><use xlink:href="#l" transform="matrix(1,0,0,1,714,517) translate(39.49761284722223 21.74305555555555)"/><use xlink:href="#m" transform="matrix(1,0,0,1,714,517) translate(-11.709255642361072 54.331336805555544)"/><path d="M1067.3 436.45v16.8c2.8 4.77 6.2 8.26 10.95 11.1v-27.9z" stroke="#000" stroke-opacity="0" fill="#aecbfa"/><path d="M1087.53 420.96v48.15c2.48.3 4.6.45 7.07.4 2.23.15 4.14.15 6.37 0v-48.54z" stroke="#000" stroke-opacity="0" fill="#669df6"/><path d="M1111.6 443.1v21c4.77-3.05 8.17-6.66 10.88-11.6v-9.4z" stroke="#000" stroke-opacity="0" fill="#aecbfa"/><path d="M1137.85 471.7l-9.05 9.05-.04.04c-1.04 1.07-1.04 2.77.04 3.8l22.6 22.62c1.04 1.04 2.75 1.04 3.8 0l9.12-9.13c1.04-1.05 1.04-2.76 0-3.8l-22.6-22.6-.04-.04c-1.08-1.04-2.8-1.04-3.83.04" stroke="#000" stroke-opacity="0" fill="#4285f4"/><path d="M1094.7 380c-31.8 0-57.6 25.8-57.6 57.6s25.8 57.6 57.6 57.6 57.6-25.8 57.6-57.6-25.8-57.6-57.6-57.6m0 100.45c-23.62-.1-42.74-19.23-42.74-42.85.12-23.62 19.24-42.74 42.86-42.74 23.6.12 42.62 19.12 42.73 42.74 0 23.62-19.12 42.74-42.73 42.85h-.12" stroke="#000" stroke-opacity="0" fill="#669df6"/><use xlink:href="#j" transform="matrix(1,0,0,1,1007.0999999999999,517) translate(44.59044053819446 21.74305555555555)"/><use xlink:href="#n" transform="matrix(1,0,0,1,1007.0999999999999,517) translate(43.47808159722223 54.331336805555544)"/><path d="M-44.02 445.98H-110v-3.96h65.98zm110.56 0H21.3v-3.96h45.24z" stroke="#3a414a" stroke-width=".05" fill="#3a414a"/><path d="M-109.95 445.98H-112v-3.96h2.05z" fill="#3a414a"/><path stroke="#3a414a" stroke-width=".05" fill="#3a414a"/><path d="M82.8 444l-14.26 4.63v-9.26z" fill="#3a414a"/><path d="M89.2 444l-22.63 7.35v-14.7zm-18.68 1.92l5.9-1.92-5.9-1.92z" stroke="#3a414a" stroke-width=".05" fill="#3a414a"/><use xlink:href="#o" transform="matrix(1,0,0,1,-44.02389973958334,430.4215494791667) translate(0.005000000000002558 21.74305555555555)"/><path d="M289.2 445.98h-72.48v-3.96h72.48zm104.46 0H341.9l.02-3.96h51.74z" stroke="#3a414a" stroke-width=".05" fill="#3a414a"/><path d="M216.77 445.98h-2.05v-3.96h2.05z" fill="#3a414a"/><path stroke="#3a414a" stroke-width=".05" fill="#3a414a"/><path d="M409.92 444l-14.26 4.63v-9.26z" fill="#3a414a"/><path d="M416.3 444l-22.62 7.35v-14.7zm-18.67 1.92l5.9-1.92-5.9-1.92z" stroke="#3a414a" stroke-width=".05" fill="#3a414a"/><use xlink:href="#p" transform="matrix(1,0,0,1,289.20074425098704,430.4215494791667) translate(0.004999999999999005 21.74305555555555)"/><path d="M585.1 445.98h-52.28v-3.96h52.3zm161.3 0h-31.57v-3.96h31.56z" stroke="#3a414a" stroke-width=".05" fill="#3a414a"/><path d="M532.87 445.98h-2.33l.4-2.85.05-1.1h1.87z" fill="#3a414a"/><path stroke="#3a414a" stroke-width=".05" fill="#3a414a"/><path d="M762.65 444l-14.26 4.63v-9.26z" fill="#3a414a"/><path d="M769.04 444l-22.63 7.35v-14.7zm-18.68 1.92l5.9-1.92-5.9-1.92z" stroke="#3a414a" stroke-width=".05" fill="#3a414a"/><g><use xlink:href="#q" transform="matrix(1,0,0,1,585.1088014271119,430.4215494791667) translate(0.0049999999999954525 21.74305555555555)"/><use xlink:href="#r" transform="matrix(1,0,0,1,585.1088014271119,430.4215494791667) translate(82.8346440972222 21.74305555555555)"/></g><path d="M859.92 445.98h-45.86v-3.96h45.86zm154.84 0h-25.13v-3.96h25.13z" stroke="#3a414a" stroke-width=".05" fill="#3a414a"/><path d="M812.06 445.98h-3v-3.96h3z" fill="#3a414a"/><path stroke="#3a414a" stroke-width=".05" fill="#3a414a"/><path d="M1031.02 444l-14.26 4.63v-9.26z" fill="#3a414a"/><path d="M1037.4 444l-22.62 7.35v-14.7zm-18.67 1.92l5.9-1.92-5.9-1.92z" stroke="#3a414a" stroke-width=".05" fill="#3a414a"/><g><use xlink:href="#s" transform="matrix(1,0,0,1,859.9191197718203,414.1274088541667) translate(0.0049999999999954525 21.74305555555555)"/><use xlink:href="#t" transform="matrix(1,0,0,1,859.9191197718203,414.1274088541667) translate(115.26292100694441 21.74305555555555)"/><use xlink:href="#u" transform="matrix(1,0,0,1,859.9191197718203,414.1274088541667) translate(36.959427083333324 54.331336805555544)"/></g><defs><path fill="#fff" d="M789 20c-398 0-667-293-667-764 0-473 273-766 655-766 315 0 558 198 612 487h-196c-61-191-204-311-415-311-262 0-471 207-471 590 0 380 208 588 482 588 249 0 420-165 425-427H828v-166h572v163c0 370-256 606-611 606" id="v"/><path fill="#fff" d="M783 20c-382 0-661-292-661-764 0-473 279-766 661-766 302 0 548 182 601 489h-190c-42-204-217-313-411-313-268 0-476 208-476 590 0 381 209 588 476 588 195 0 369-110 411-313h190c-52 303-296 489-601 489" id="w"/><path fill="#fff" d="M180 0v-1490h510c348 0 508 209 508 474 0 266-160 477-507 477H370V0H180zm190-706h312c236 0 327-133 327-310 0-176-91-307-329-307H370v617" id="x"/><g id="a"><use transform="matrix(0.01953125,0,0,0.01953125,0,0)" xlink:href="#v"/><use transform="matrix(0.01953125,0,0,0.01953125,29.84375,0)" xlink:href="#w"/><use transform="matrix(0.01953125,0,0,0.01953125,59.0625,0)" xlink:href="#x"/></g><path fill="#fff" d="M657 26c-323 0-524-166-541-416h195c15 169 171 246 346 246 202 0 356-106 356-265 5-203-294-238-475-293-239-73-380-191-380-389 0-252 224-419 512-419 294 0 499 171 508 396H992c-17-145-151-228-328-228-193 0-321 102-321 242 0 156 175 211 284 241l149 41c160 44 422 134 422 412 0 244-197 432-541 432" id="y"/><path fill="#fff" d="M471 26C259 26 90-98 90-318c0-256 228-303 435-329 202-27 287-16 287-108 0-139-79-219-234-219-161 0-248 86-283 164l-173-57c86-203 278-265 451-265 150 0 419 46 419 395V0H815v-152h-12C765-73 660 26 471 26zm31-159c199 0 310-134 310-271v-155c-30 35-226 55-295 64-131 17-246 59-246 186 0 116 97 176 231 176" id="z"/><path fill="#fff" d="M338-1490V0H158v-1490h180" id="A"/><path fill="#fff" d="M628 24c-324 0-524-230-524-574 0-343 198-582 503-582 237 0 487 146 487 559v75H286c9 234 145 362 343 362 132 0 231-58 273-172l174 48C1024-91 857 24 628 24zM287-650h624c-17-190-120-322-304-322-192 0-309 151-320 322" id="B"/><path fill="#fff" d="M538 24C308 24 148-78 108-271l171-41c32 123 123 178 257 178 156 0 256-77 256-169 0-77-54-128-164-154l-186-44c-203-48-300-148-300-305 0-192 176-326 414-326 230 0 351 112 402 269l-163 42c-31-80-94-158-238-158-133 0-233 69-233 162 0 83 57 129 188 160l169 40c203 48 298 149 298 302 0 196-179 339-441 339" id="C"/><g id="b"><use transform="matrix(0.01953125,0,0,0.01953125,0,0)" xlink:href="#y"/><use transform="matrix(0.01953125,0,0,0.01953125,25.6640625,0)" xlink:href="#z"/><use transform="matrix(0.01953125,0,0,0.01953125,48.125,0)" xlink:href="#A"/><use transform="matrix(0.01953125,0,0,0.01953125,57.8125,0)" xlink:href="#B"/><use transform="matrix(0.01953125,0,0,0.01953125,81.1328125,0)" xlink:href="#C"/></g><path fill="#fff" d="M158 0v-1118h180V0H158zm91-1301c-68 0-125-53-125-119s57-119 125-119c69 0 126 53 126 119s-57 119-126 119" id="D"/><path fill="#fff" d="M158 418v-1536h174v179h20c37-59 106-193 324-193 279 0 474 222 474 576 0 356-194 580-473 580-213 0-288-135-325-197h-14v591H158zm492-555c209 0 317-186 317-421 0-232-105-413-317-413-206 0-314 166-314 413 0 249 111 421 314 421" id="E"/><path fill="#fff" d="M338-670V0H158v-1118h173l1 207c72-158 192-221 342-221 226 0 378 139 378 422V0H872v-695c0-172-96-275-252-275-161 0-282 109-282 300" id="F"/><g id="c"><use transform="matrix(0.01953125,0,0,0.01953125,0,0)" xlink:href="#x"/><use transform="matrix(0.01953125,0,0,0.01953125,25.546875,0)" xlink:href="#D"/><use transform="matrix(0.01953125,0,0,0.01953125,35.234375,0)" xlink:href="#E"/><use transform="matrix(0.01953125,0,0,0.01953125,59.7265625,0)" xlink:href="#B"/><use transform="matrix(0.01953125,0,0,0.01953125,83.046875,0)" xlink:href="#A"/><use transform="matrix(0.01953125,0,0,0.01953125,92.734375,0)" xlink:href="#D"/><use transform="matrix(0.01953125,0,0,0.01953125,102.421875,0)" xlink:href="#F"/><use transform="matrix(0.01953125,0,0,0.01953125,126.0546875,0)" xlink:href="#B"/></g><path fill="#fff" d="M52 0l541-1490h220L1361 0h-200l-149-416H398L254 0H52zm404-582h497c-103-290-145-390-251-756-108 377-145 460-246 756" id="G"/><path fill="#fff" d="M158 0v-1118h174v172h12c41-113 157-188 290-188 26 0 70 2 91 3v181c-11-2-60-10-108-10-161 0-279 109-279 260V0H158" id="H"/><path fill="#fff" d="M613 24c-304 0-509-231-509-576 0-350 205-580 509-580 216 0 392 114 453 309l-173 49c-33-115-133-197-280-197-223 0-326 196-326 419 0 220 103 415 326 415 150 0 252-85 285-206l172 49C1010-95 832 24 613 24" id="I"/><path fill="#fff" d="M338-670V0H158v-1490h180v566c73-149 190-208 336-208 226 0 379 139 379 422V0H872v-695c0-172-96-275-252-275-161 0-282 109-282 300" id="J"/><path fill="#fff" d="M598-1118v154H368v674c0 100 37 144 132 144 23 0 62-6 92-12L629-6c-37 13-88 20-134 20-193 0-307-107-307-290v-688H20v-154h168v-266h180v266h230" id="K"/><path fill="#fff" d="M537 14c-226 0-379-139-379-422v-710h180v695c0 172 97 275 253 275 160 0 281-109 281-300v-670h181V0H879v-209C806-46 684 14 537 14" id="L"/><g id="d"><use transform="matrix(0.01953125,0,0,0.01953125,0,0)" xlink:href="#G"/><use transform="matrix(0.01953125,0,0,0.01953125,27.59765625,0)" xlink:href="#H"/><use transform="matrix(0.01953125,0,0,0.01953125,41.9921875,0)" xlink:href="#I"/><use transform="matrix(0.01953125,0,0,0.01953125,64.84375,0)" xlink:href="#J"/><use transform="matrix(0.01953125,0,0,0.01953125,88.49609375,0)" xlink:href="#D"/><use transform="matrix(0.01953125,0,0,0.01953125,98.18359375,0)" xlink:href="#K"/><use transform="matrix(0.01953125,0,0,0.01953125,110.87890625,0)" xlink:href="#B"/><use transform="matrix(0.01953125,0,0,0.01953125,134.19921875,0)" xlink:href="#I"/><use transform="matrix(0.01953125,0,0,0.01953125,157.05078125,0)" xlink:href="#K"/><use transform="matrix(0.01953125,0,0,0.01953125,170.13671875,0)" xlink:href="#L"/><use transform="matrix(0.01953125,0,0,0.01953125,193.7890625,0)" xlink:href="#H"/><use transform="matrix(0.01953125,0,0,0.01953125,208.18359375,0)" xlink:href="#B"/></g><path fill="#3a414a" d="M657 26c-323 0-524-166-541-416h195c15 169 171 246 346 246 202 0 356-106 356-265 5-203-294-238-475-293-239-73-380-191-380-389 0-252 224-419 512-419 294 0 499 171 508 396H992c-17-145-151-228-328-228-193 0-321 102-321 242 0 156 175 211 284 241l149 41c160 44 422 134 422 412 0 244-197 432-541 432" id="M"/><path fill="#3a414a" d="M613 24c-304 0-509-231-509-576 0-350 205-580 509-580 305 0 511 230 511 580 0 345-206 576-511 576zm0-161c226 0 329-195 329-415 0-222-103-419-329-419-223 0-326 196-326 419 0 220 103 415 326 415" id="N"/><path fill="#3a414a" d="M537 14c-226 0-379-139-379-422v-710h180v695c0 172 97 275 253 275 160 0 281-109 281-300v-670h181V0H879v-209C806-46 684 14 537 14" id="O"/><path fill="#3a414a" d="M158 0v-1118h174v172h12c41-113 157-188 290-188 26 0 70 2 91 3v181c-11-2-60-10-108-10-161 0-279 109-279 260V0H158" id="P"/><path fill="#3a414a" d="M613 24c-304 0-509-231-509-576 0-350 205-580 509-580 216 0 392 114 453 309l-173 49c-33-115-133-197-280-197-223 0-326 196-326 419 0 220 103 415 326 415 150 0 252-85 285-206l172 49C1010-95 832 24 613 24" id="Q"/><path fill="#3a414a" d="M628 24c-324 0-524-230-524-574 0-343 198-582 503-582 237 0 487 146 487 559v75H286c9 234 145 362 343 362 132 0 231-58 273-172l174 48C1024-91 857 24 628 24zM287-650h624c-17-190-120-322-304-322-192 0-309 151-320 322" id="R"/><g id="e"><use transform="matrix(0.010959201388888886,0,0,0.010959201388888886,0,0)" xlink:href="#M"/><use transform="matrix(0.010959201388888886,0,0,0.010959201388888886,14.400390624999996,0)" xlink:href="#N"/><use transform="matrix(0.010959201388888886,0,0,0.010959201388888886,27.85828993055555,0)" xlink:href="#O"/><use transform="matrix(0.010959201388888886,0,0,0.010959201388888886,41.12988281249999,0)" xlink:href="#P"/><use transform="matrix(0.010959201388888886,0,0,0.010959201388888886,49.2068142361111,0)" xlink:href="#Q"/><use transform="matrix(0.010959201388888886,0,0,0.010959201388888886,62.0290798611111,0)" xlink:href="#R"/></g><path fill="#3a414a" d="M645 0H180v-1490h484c435 0 692 280 692 742 0 466-257 748-711 748zM370-168h263c363 0 539-218 539-580 0-358-176-574-521-574H370v1154" id="S"/><path fill="#3a414a" d="M471 26C259 26 90-98 90-318c0-256 228-303 435-329 202-27 287-16 287-108 0-139-79-219-234-219-161 0-248 86-283 164l-173-57c86-203 278-265 451-265 150 0 419 46 419 395V0H815v-152h-12C765-73 660 26 471 26zm31-159c199 0 310-134 310-271v-155c-30 35-226 55-295 64-131 17-246 59-246 186 0 116 97 176 231 176" id="T"/><path fill="#3a414a" d="M598-1118v154H368v674c0 100 37 144 132 144 23 0 62-6 92-12L629-6c-37 13-88 20-134 20-193 0-307-107-307-290v-688H20v-154h168v-266h180v266h230" id="U"/><g id="f"><use transform="matrix(0.010959201388888886,0,0,0.010959201388888886,0,0)" xlink:href="#S"/><use transform="matrix(0.010959201388888886,0,0,0.010959201388888886,16.197699652777775,0)" xlink:href="#T"/><use transform="matrix(0.010959201388888886,0,0,0.010959201388888886,28.800781249999993,0)" xlink:href="#U"/><use transform="matrix(0.010959201388888886,0,0,0.010959201388888886,36.253038194444436,0)" xlink:href="#T"/></g><path fill="#3a414a" d="M783 20c-382 0-661-292-661-764 0-473 279-766 661-766 302 0 548 182 601 489h-190c-42-204-217-313-411-313-268 0-476 208-476 590 0 381 209 588 476 588 195 0 369-110 411-313h190c-52 303-296 489-601 489" id="V"/><path fill="#3a414a" d="M338-1490V0H158v-1490h180" id="W"/><path fill="#3a414a" d="M577 24c-279 0-473-224-473-580 0-354 195-576 474-576 218 0 287 134 324 193h14v-551h180V0H922v-173h-20C865-111 790 24 577 24zm27-161c203 0 314-172 314-421 0-247-108-413-314-413-212 0-317 181-317 413 0 235 108 421 317 421" id="X"/><g id="g"><use transform="matrix(0.010959201388888886,0,0,0.010959201388888886,0,0)" xlink:href="#V"/><use transform="matrix(0.010959201388888886,0,0,0.010959201388888886,16.394965277777775,0)" xlink:href="#W"/><use transform="matrix(0.010959201388888886,0,0,0.010959201388888886,21.830729166666664,0)" xlink:href="#N"/><use transform="matrix(0.010959201388888886,0,0,0.010959201388888886,35.288628472222214,0)" xlink:href="#O"/><use transform="matrix(0.010959201388888886,0,0,0.010959201388888886,48.56022135416666,0)" xlink:href="#X"/></g><path fill="#3a414a" d="M611 442c-248 0-391-105-460-228l146-94c47 65 117 165 314 165 178 0 307-82 307-266v-224h-17C863-141 792-18 576-18c-268 0-472-195-472-546 0-346 197-568 476-568 216 0 288 133 326 193h17v-179h175V29c0 289-215 413-487 413zm-5-620c203 0 314-146 314-390 0-237-108-403-314-403-213 0-319 180-319 403 0 230 109 390 319 390" id="Y"/><g id="h"><use transform="matrix(0.010959201388888886,0,0,0.010959201388888886,0,0)" xlink:href="#M"/><use transform="matrix(0.010959201388888886,0,0,0.010959201388888886,14.400390624999996,0)" xlink:href="#U"/><use transform="matrix(0.010959201388888886,0,0,0.010959201388888886,21.52387152777777,0)" xlink:href="#N"/><use transform="matrix(0.010959201388888886,0,0,0.010959201388888886,34.98177083333332,0)" xlink:href="#P"/><use transform="matrix(0.010959201388888886,0,0,0.010959201388888886,43.43131510416666,0)" xlink:href="#T"/><use transform="matrix(0.010959201388888886,0,0,0.010959201388888886,56.03439670138888,0)" xlink:href="#Y"/><use transform="matrix(0.010959201388888886,0,0,0.010959201388888886,69.79915364583331,0)" xlink:href="#R"/></g><path fill="#3a414a" d="M218-607c0-325 108-727 258-974h175c-155 315-250 682-250 974 0 265 78 531 250 886H476C306-10 218-315 218-607" id="Z"/><path fill="#3a414a" d="M789 20c-398 0-667-293-667-764 0-473 273-766 655-766 315 0 558 198 612 487h-196c-61-191-204-311-415-311-262 0-471 207-471 590 0 380 208 588 482 588 249 0 420-165 425-427H828v-166h572v163c0 370-256 606-611 606" id="aa"/><path fill="#3a414a" d="M96 279C273-86 346-350 346-607c0-292-95-659-250-974h175c150 246 258 650 258 974 0 297-91 602-258 886H96" id="ab"/><g id="i"><use transform="matrix(0.010959201388888886,0,0,0.010959201388888886,0,0)" xlink:href="#Z"/><use transform="matrix(0.010959201388888886,0,0,0.010959201388888886,8.186523437499998,0)" xlink:href="#aa"/><use transform="matrix(0.010959201388888886,0,0,0.010959201388888886,24.932183159722218,0)" xlink:href="#V"/><use transform="matrix(0.010959201388888886,0,0,0.010959201388888886,41.327148437499986,0)" xlink:href="#M"/><use transform="matrix(0.010959201388888886,0,0,0.010959201388888886,55.727539062499986,0)" xlink:href="#ab"/></g><path fill="#3a414a" d="M180 0v-1490h528c311 0 458 177 458 395 0 191-114 278-244 313v14c139 9 302 137 302 371 0 225-148 397-499 397H180zm190-168h350c232 0 321-102 321-231 0-149-120-277-311-277H370v508zm0-668h328c160 0 286-101 286-255 0-129-87-231-280-231H370v486" id="ac"/><path fill="#3a414a" d="M158 0v-1118h180V0H158zm91-1301c-68 0-125-53-125-119s57-119 125-119c69 0 126 53 126 119s-57 119-126 119" id="ad"/><path fill="#3a414a" d="M784 20c-382 0-662-292-662-764 0-473 280-766 662-766s660 293 660 766c0 282-99 499-260 629l192 255h-198L1049-33C969 2 880 20 784 20zm-62-486h198l156 205c112-98 183-261 183-483 0-383-209-590-475-590-268 0-477 208-477 590 0 380 209 588 477 588 54 0 106-9 154-25" id="ae"/><path fill="#3a414a" d="M140 405l46-156c120 36 205 19 263-150l32-93L54-1118h197c107 313 237 620 324 950 87-331 219-637 326-950h196L606 167c-68 178-176 259-334 259-64 0-113-12-132-21" id="af"/><g id="j"><use transform="matrix(0.010959201388888886,0,0,0.010959201388888886,0,0)" xlink:href="#ac"/><use transform="matrix(0.010959201388888886,0,0,0.010959201388888886,14.685329861111107,0)" xlink:href="#ad"/><use transform="matrix(0.010959201388888886,0,0,0.010959201388888886,20.121093749999993,0)" xlink:href="#Y"/><use transform="matrix(0.010959201388888886,0,0,0.010959201388888886,33.885850694444436,0)" xlink:href="#ae"/><use transform="matrix(0.010959201388888886,0,0,0.010959201388888886,51.047960069444436,0)" xlink:href="#O"/><use transform="matrix(0.010959201388888886,0,0,0.010959201388888886,64.31955295138887,0)" xlink:href="#R"/><use transform="matrix(0.010959201388888886,0,0,0.010959201388888886,77.4048394097222,0)" xlink:href="#P"/><use transform="matrix(0.010959201388888886,0,0,0.010959201388888886,86.20507812499997,0)" xlink:href="#af"/></g><path fill="#3a414a" d="M338-670V0H158v-1118h173l1 207c72-158 192-221 342-221 226 0 378 139 378 422V0H872v-695c0-172-96-275-252-275-161 0-282 109-282 300" id="ag"/><g id="k"><use transform="matrix(0.010959201388888886,0,0,0.010959201388888886,0,0)" xlink:href="#Z"/><use transform="matrix(0.010959201388888886,0,0,0.010959201388888886,8.186523437499998,0)" xlink:href="#M"/><use transform="matrix(0.010959201388888886,0,0,0.010959201388888886,22.586914062499996,0)" xlink:href="#U"/><use transform="matrix(0.010959201388888886,0,0,0.010959201388888886,30.03917100694444,0)" xlink:href="#T"/><use transform="matrix(0.010959201388888886,0,0,0.010959201388888886,42.64225260416666,0)" xlink:href="#Y"/><use transform="matrix(0.010959201388888886,0,0,0.010959201388888886,56.4070095486111,0)" xlink:href="#ad"/><use transform="matrix(0.010959201388888886,0,0,0.010959201388888886,61.842773437499986,0)" xlink:href="#ag"/><use transform="matrix(0.010959201388888886,0,0,0.010959201388888886,75.10340711805554,0)" xlink:href="#Y"/><use transform="matrix(0.010959201388888886,0,0,0.010959201388888886,88.86816406249999,0)" xlink:href="#ab"/></g><path fill="#3a414a" d="M52 0l541-1490h220L1361 0h-200l-149-416H398L254 0H52zm404-582h497c-103-290-145-390-251-756-108 377-145 460-246 756" id="ah"/><path fill="#3a414a" d="M678-1118v154H420V0H240v-964H20v-154h220v-149c0-194 155-293 318-293 85 0 141 18 168 30l-50 154c-19-6-47-17-97-17-111 0-159 58-159 166v109h258" id="ai"/><path fill="#3a414a" d="M409 0L70-1118h191c89 329 165 560 243 925 75-353 154-601 240-925h192c85 325 161 564 235 922 77-354 157-598 244-922h191L1267 0h-179c-86-307-176-590-250-913C763-588 675-308 588 0H409" id="aj"/><g id="l"><use transform="matrix(0.010959201388888886,0,0,0.010959201388888886,0,0)" xlink:href="#ah"/><use transform="matrix(0.010959201388888886,0,0,0.010959201388888886,15.605902777777775,0)" xlink:href="#ad"/><use transform="matrix(0.010959201388888886,0,0,0.010959201388888886,21.041666666666664,0)" xlink:href="#P"/><use transform="matrix(0.010959201388888886,0,0,0.010959201388888886,29.84190538194444,0)" xlink:href="#ai"/><use transform="matrix(0.010959201388888886,0,0,0.010959201388888886,38.148980034722214,0)" xlink:href="#W"/><use transform="matrix(0.010959201388888886,0,0,0.010959201388888886,43.5847439236111,0)" xlink:href="#N"/><use transform="matrix(0.010959201388888886,0,0,0.010959201388888886,56.637152777777764,0)" xlink:href="#aj"/></g><path fill="#3a414a" d="M98-1322v-168h1126v168H757V0H567v-1322H98" id="ak"/><path fill="#3a414a" d="M538 24C308 24 148-78 108-271l171-41c32 123 123 178 257 178 156 0 256-77 256-169 0-77-54-128-164-154l-186-44c-203-48-300-148-300-305 0-192 176-326 414-326 230 0 351 112 402 269l-163 42c-31-80-94-158-238-158-133 0-233 69-233 162 0 83 57 129 188 160l169 40c203 48 298 149 298 302 0 196-179 339-441 339" id="al"/><path fill="#3a414a" d="M158 0v-1118h175l1 205c55-151 181-225 313-225 147 0 245 90 285 228 53-141 190-228 352-228 194 0 352 125 352 384V0h-181v-749c0-161-105-225-225-225-151 0-243 103-243 244V0H807v-767c0-124-93-207-219-207-131 0-250 92-250 270V0H158" id="am"/><g id="m"><use transform="matrix(0.010959201388888886,0,0,0.010959201388888886,0,0)" xlink:href="#Z"/><use transform="matrix(0.010959201388888886,0,0,0.010959201388888886,8.186523437499998,0)" xlink:href="#ak"/><use transform="matrix(0.010959201388888886,0,0,0.010959201388888886,21.403320312499993,0)" xlink:href="#P"/><use transform="matrix(0.010959201388888886,0,0,0.010959201388888886,29.852864583333325,0)" xlink:href="#T"/><use transform="matrix(0.010959201388888886,0,0,0.010959201388888886,42.45594618055554,0)" xlink:href="#ag"/><use transform="matrix(0.010959201388888886,0,0,0.010959201388888886,55.716579861111086,0)" xlink:href="#al"/><use transform="matrix(0.010959201388888886,0,0,0.010959201388888886,67.56347656249997,0)" xlink:href="#ai"/><use transform="matrix(0.010959201388888886,0,0,0.010959201388888886,75.21299913194441,0)" xlink:href="#N"/><use transform="matrix(0.010959201388888886,0,0,0.010959201388888886,88.67089843749997,0)" xlink:href="#P"/><use transform="matrix(0.010959201388888886,0,0,0.010959201388888886,97.47113715277773,0)" xlink:href="#am"/><use transform="matrix(0.010959201388888886,0,0,0.010959201388888886,117.1319444444444,0)" xlink:href="#T"/><use transform="matrix(0.010959201388888886,0,0,0.010959201388888886,129.73502604166663,0)" xlink:href="#U"/><use transform="matrix(0.010959201388888886,0,0,0.010959201388888886,137.07769097222217,0)" xlink:href="#ad"/><use transform="matrix(0.010959201388888886,0,0,0.010959201388888886,142.51345486111106,0)" xlink:href="#N"/><use transform="matrix(0.010959201388888886,0,0,0.010959201388888886,155.9713541666666,0)" xlink:href="#ag"/><use transform="matrix(0.010959201388888886,0,0,0.010959201388888886,169.23198784722214,0)" xlink:href="#ab"/></g><g id="n"><use transform="matrix(0.010959201388888886,0,0,0.010959201388888886,0,0)" xlink:href="#Z"/><use transform="matrix(0.010959201388888886,0,0,0.010959201388888886,8.186523437499998,0)" xlink:href="#V"/><use transform="matrix(0.010959201388888886,0,0,0.010959201388888886,24.58148871527777,0)" xlink:href="#O"/><use transform="matrix(0.010959201388888886,0,0,0.010959201388888886,37.853081597222214,0)" xlink:href="#P"/><use transform="matrix(0.010959201388888886,0,0,0.010959201388888886,46.30262586805554,0)" xlink:href="#T"/><use transform="matrix(0.010959201388888886,0,0,0.010959201388888886,58.905707465277764,0)" xlink:href="#U"/><use transform="matrix(0.010959201388888886,0,0,0.010959201388888886,66.02918836805554,0)" xlink:href="#R"/><use transform="matrix(0.010959201388888886,0,0,0.010959201388888886,79.11447482638887,0)" xlink:href="#X"/><use transform="matrix(0.010959201388888886,0,0,0.010959201388888886,92.85731336805553,0)" xlink:href="#ab"/></g><path fill="#3a414a" d="M370-1490V0H180v-1490h190" id="an"/><g id="o"><use transform="matrix(0.010959201388888886,0,0,0.010959201388888886,0,0)" xlink:href="#an"/><use transform="matrix(0.010959201388888886,0,0,0.010959201388888886,6.0275607638888875,0)" xlink:href="#ag"/><use transform="matrix(0.010959201388888886,0,0,0.010959201388888886,19.28819444444444,0)" xlink:href="#Y"/><use transform="matrix(0.010959201388888886,0,0,0.010959201388888886,33.05295138888888,0)" xlink:href="#R"/><use transform="matrix(0.010959201388888886,0,0,0.010959201388888886,46.138237847222214,0)" xlink:href="#al"/><use transform="matrix(0.010959201388888886,0,0,0.010959201388888886,57.9851345486111,0)" xlink:href="#U"/></g><path fill="#3a414a" d="M180 0v-1490h190v1322h690V0H180" id="ao"/><g id="p"><use transform="matrix(0.010959201388888886,0,0,0.010959201388888886,0,0)" xlink:href="#ao"/><use transform="matrix(0.010959201388888886,0,0,0.010959201388888886,12.69075520833333,0)" xlink:href="#N"/><use transform="matrix(0.010959201388888886,0,0,0.010959201388888886,26.36783854166666,0)" xlink:href="#T"/><use transform="matrix(0.010959201388888886,0,0,0.010959201388888886,38.97092013888888,0)" xlink:href="#X"/></g><g id="q"><use transform="matrix(0.010959201388888886,0,0,0.010959201388888886,0,0)" xlink:href="#ak"/><use transform="matrix(0.010959201388888886,0,0,0.010959201388888886,13.216796874999996,0)" xlink:href="#P"/><use transform="matrix(0.010959201388888886,0,0,0.010959201388888886,22.01703559027777,0)" xlink:href="#ad"/><use transform="matrix(0.010959201388888886,0,0,0.010959201388888886,27.452799479166654,0)" xlink:href="#Y"/><use transform="matrix(0.010959201388888886,0,0,0.010959201388888886,41.2175564236111,0)" xlink:href="#Y"/><use transform="matrix(0.010959201388888886,0,0,0.010959201388888886,54.98231336805554,0)" xlink:href="#R"/><use transform="matrix(0.010959201388888886,0,0,0.010959201388888886,68.06759982638887,0)" xlink:href="#P"/></g><g id="r"><use transform="matrix(0.010959201388888886,0,0,0.010959201388888886,0,0)" xlink:href="#S"/><use transform="matrix(0.010959201388888886,0,0,0.010959201388888886,15.430555555555555,0)" xlink:href="#ah"/><use transform="matrix(0.010959201388888886,0,0,0.010959201388888886,30.148763020833325,0)" xlink:href="#aa"/></g><g id="s"><use transform="matrix(0.010959201388888886,0,0,0.010959201388888886,0,0)" xlink:href="#ak"/><use transform="matrix(0.010959201388888886,0,0,0.010959201388888886,13.216796874999996,0)" xlink:href="#P"/><use transform="matrix(0.010959201388888886,0,0,0.010959201388888886,21.66634114583333,0)" xlink:href="#T"/><use transform="matrix(0.010959201388888886,0,0,0.010959201388888886,34.26942274305555,0)" xlink:href="#ag"/><use transform="matrix(0.010959201388888886,0,0,0.010959201388888886,47.5300564236111,0)" xlink:href="#al"/><use transform="matrix(0.010959201388888886,0,0,0.010959201388888886,59.376953124999986,0)" xlink:href="#ai"/><use transform="matrix(0.010959201388888886,0,0,0.010959201388888886,67.02647569444443,0)" xlink:href="#N"/><use transform="matrix(0.010959201388888886,0,0,0.010959201388888886,80.48437499999999,0)" xlink:href="#P"/><use transform="matrix(0.010959201388888886,0,0,0.010959201388888886,89.28461371527776,0)" xlink:href="#am"/></g><path fill="#3a414a" d="M580 20c-295 0-476-179-476-409 0-189 123-290 294-416-104-125-173-226-173-362 0-197 144-337 365-337 224 0 362 144 362 321 0 185-174 312-306 405l319 387c38-75 61-165 61-267h173c0 208-62 332-120 406L1287 0h-217L967-124C868-27 716 20 580 20zm279-273L507-675l-51 38c-123 91-167 162-167 254 0 147 113 246 278 246 107 0 210-41 292-116zM538-908l97-72c54-40 136-101 136-206 0-95-68-163-176-163-113 0-189 74-189 181 0 90 53 164 132 260" id="ap"/><use transform="matrix(0.010959201388888886,0,0,0.010959201388888886,0,0)" xlink:href="#ap" id="t"/><path fill="#3a414a" d="M458 0L52-1490h194c108 439 233 855 324 1313 92-459 221-873 331-1313h216c110 438 234 854 330 1307 92-455 216-869 323-1307h196L1558 0h-221l-256-944c-26-95-50-200-73-331-22 122-44 223-73 331L680 0H458" id="aq"/><g id="u"><use transform="matrix(0.010959201388888886,0,0,0.010959201388888886,0,0)" xlink:href="#aq"/><use transform="matrix(0.010959201388888886,0,0,0.010959201388888886,21.35948350694444,0)" xlink:href="#P"/><use transform="matrix(0.010959201388888886,0,0,0.010959201388888886,30.159722222222214,0)" xlink:href="#ad"/><use transform="matrix(0.010959201388888886,0,0,0.010959201388888886,35.5954861111111,0)" xlink:href="#U"/><use transform="matrix(0.010959201388888886,0,0,0.010959201388888886,42.71896701388887,0)" xlink:href="#R"/></g></defs></g></svg>